{
  "accessors": [
    {
      "bufferView": 2,
      "componentType": 5126,
      "count": 7488,
      "max": [
        92.108306884765625,
        92.119171142578125,
        1.2704000473022461
      ],
      "min": [
        -91.914230346679688,
        -91.807746887207031,
        -1.1420600414276123
      ],
      "type": "VEC3"
    },
    {
      "bufferView": 2,
      "byteOffset": 89856,
      "componentType": 5126,
      "count": 7488,
      "max": [
        0.86545032262802124,
        0.72247606515884399,
        0.99999558925628662
      ],
      "min": [
        -0.71044832468032837,
        -0.69379639625549316,
        0.23466008901596069
      ],
      "type": "VEC3"
    },
    {
      "bufferView": 3,
      "componentType": 5126,
      "count": 7488,
      "max": [
        0.988381028175354,
        0.98233431577682495,
        0.66312384605407715,
        1
      ],
      "min": [
        -0.15234820544719696,
        -0.23494155704975128,
        -0.76199585199356079,
        1
      ],
      "type": "VEC4"
    },
    {
      "bufferView": 1,
      "componentType": 5126,
      "count": 7488,
      "max": [
        0.99989998340606689,
        0.99989998340606689
      ],
      "min": [
        9.9999997473787516e-05,
        9.9999997473787516e-05
      ],
      "type": "VEC2"
    },
    {
      "bufferView": 0,
      "componentType": 5125,
      "count": 7488,
      "max": [
        7487
      ],
      "min": [
        0
      ],
      "type": "SCALAR"
    },
    {
      "bufferView": 2,
      "byteOffset": 179712,
      "componentType": 5126,
      "count": 10070,
      "max": [
        105.19790649414062,
        105.19789886474609,
        198.84162902832031
      ],
      "min": [
        -105.19790649414062,
        -105.19790649414062,
        0.2720000147819519
      ],
      "type": "VEC3"
    },
    {
      "bufferView": 2,
      "byteOffset": 300552,
      "componentType": 5126,
      "count": 10070,
      "max": [
        0.99986666440963745,
        0.99986666440963745,
        0.95922195911407471
      ],
      "min": [
        -0.99986666440963745,
        -0.99986666440963745,
        -1
      ],
      "type": "VEC3"
    },
    {
      "bufferView": 3,
      "byteOffset": 119808,
      "componentType": 5126,
      "count": 10070,
      "max": [
        0.99875664710998535,
        0.99912184476852417,
        0.99986666440963745,
        1
      ],
      "min": [
        -0.9990234375,
        -0.99920648336410522,
        -0.99986672401428223,
        1
      ],
      "type": "VEC4"
    },
    {
      "bufferView": 1,
      "byteOffset": 59904,
      "componentType": 5126,
      "count": 10070,
      "max": [
        0.9896399974822998,
        0.98993998765945435
      ],
      "min": [
        0.017890000715851784,
        0.017160000279545784
      ],
      "type": "VEC2"
    },
    {
      "bufferView": 0,
      "byteOffset": 29952,
      "componentType": 5125,
      "count": 52992,
      "max": [
        10069
      ],
      "min": [
        0
      ],
      "type": "SCALAR"
    },
    {
      "bufferView": 2,
      "byteOffset": 421392,
      "componentType": 5126,
      "count": 32312,
      "max": [
        2.4933099746704102,
        2.9490799903869629,
        6.4843897819519043
      ],
      "min": [
        -2.9133501052856445,
        -2.5182199478149414,
        0
      ],
      "type": "VEC3"
    },
    {
      "bufferView": 2,
      "byteOffset": 809136,
      "componentType": 5126,
      "count": 32312,
      "max": [
        0.99999159574508667,
        0.99999386072158813,
        0.99978727102279663
      ],
      "min": [
        -0.99997764825820923,
        -0.9999968409538269,
        -0.99954146146774292
      ],
      "type": "VEC3"
    },
    {
      "bufferView": 3,
      "byteOffset": 280928,
      "componentType": 5126,
      "count": 32312,
      "max": [
        0.99980169534683228,
        0.99998116493225098,
        0.99999785423278809,
        -1
      ],
      "min": [
        -0.9998244047164917,
        -0.99016183614730835,
        -0.99999839067459106,
        -1
      ],
      "type": "VEC4"
    },
    {
      "bufferView": 1,
      "byteOffset": 140464,
      "componentType": 5126,
      "count": 32312,
      "max": [
        1,
        1
      ],
      "min": [
        0,
        0
      ],
      "type": "VEC2"
    },
    {
      "bufferView": 0,
      "byteOffset": 241920,
      "componentType": 5125,
      "count": 159408,
      "max": [
        32311
      ],
      "min": [
        0
      ],
      "type": "SCALAR"
    },
    {
      "bufferView": 2,
      "byteOffset": 1196880,
      "componentType": 5126,
      "count": 29814,
      "max": [
        2.7531499862670898,
        3.3589599132537842,
        7.0113801956176758
      ],
      "min": [
        -3.3273398876190186,
        -3.0225698947906494,
        0.65507000684738159
      ],
      "type": "VEC3"
    },
    {
      "bufferView": 2,
      "byteOffset": 1554648,
      "componentType": 5126,
      "count": 29814,
      "max": [
        0.99836057424545288,
        0.99892491102218628,
        0.99992048740386963
      ],
      "min": [
        -0.99880355596542358,
        -0.99947214126586914,
        -0.70345127582550049
      ],
      "type": "VEC3"
    },
    {
      "bufferView": 3,
      "byteOffset": 797920,
      "componentType": 5126,
      "count": 29814,
      "max": [
        0.99996042251586914,
        0.99992233514785767,
        0.99997729063034058,
        -1
      ],
      "min": [
        -0.99993723630905151,
        -0.99990588426589966,
        -0.99998432397842407,
        -1
      ],
      "type": "VEC4"
    },
    {
      "bufferView": 1,
      "byteOffset": 398960,
      "componentType": 5126,
      "count": 29814,
      "max": [
        0.93073999881744385,
        0.88020002841949463
      ],
      "min": [
        0.03020000085234642,
        0.069679997861385345
      ],
      "type": "VEC2"
    },
    {
      "bufferView": 0,
      "byteOffset": 879552,
      "componentType": 5125,
      "count": 57528,
      "max": [
        29813
      ],
      "min": [
        0
      ],
      "type": "SCALAR"
    }
  ],
  "asset": {
    "extras": {
      "author": "r.hessens (https://sketchfab.com/r.hessens)",
      "license": "CC-BY-4.0 (http://creativecommons.org/licenses/by/4.0/)",
      "source": "https://sketchfab.com/models/4664b25a0e134ab682e05c23816dc9b6",
      "title": "Flowerpot 2"
    },
    "generator": "Sketchfab-3.20.7",
    "version": "2.0"
  },
  "bufferViews": [
    {
      "buffer": 0,
      "byteLength": 1109664,
      "byteOffset": 0,
      "name": "floatBufferViews",
      "target": 34963
    },
    {
      "buffer": 0,
      "byteLength": 637472,
      "byteOffset": 1109664,
      "byteStride": 8,
      "name": "floatBufferViews",
      "target": 34962
    },
    {
      "buffer": 0,
      "byteLength": 1912416,
      "byteOffset": 1747136,
      "byteStride": 12,
      "name": "floatBufferViews",
      "target": 34962
    },
    {
      "buffer": 0,
      "byteLength": 1274944,
      "byteOffset": 3659552,
      "byteStride": 16,
      "name": "floatBufferViews",
      "target": 34962
    }
  ],
  "buffers": [
    {
      "byteLength": 4934496,
      "uri": "scene.bin"
    }
  ],
  "images": [
    {
      "uri": "textures/Material.001_baseColor.jpg"
    },
    {
      "uri": "textures/Material.002_baseColor.jpg"
    },
    {
      "uri": "textures/Material.006_baseColor.jpg"
    },
    {
      "uri": "textures/Material.003_emissive.png"
    },
    {
      "uri": "textures/Material.003_baseColor.png"
    }
  ],
  "materials": [
    {
      "doubleSided": true,
      "emissiveFactor": [
        0,
        0,
        0
      ],
      "name": "Material.001",
      "pbrMetallicRoughness": {
        "baseColorFactor": [
          1,
          1,
          1,
          1
        ],
        "baseColorTexture": {
          "index": 0,
          "texCoord": 0
        },
        "metallicFactor": 0,
        "roughnessFactor": 0.59999999999999998
      }
    },
    {
      "doubleSided": true,
      "name": "Material.002",
      "pbrMetallicRoughness": {
        "baseColorFactor": [
          1,
          1,
          1,
          1
        ],
        "baseColorTexture": {
          "index": 1,
          "texCoord": 0
        },
        "metallicFactor": 0,
        "roughnessFactor": 0.59999999999999998
      }
    },
    {
      "doubleSided": true,
      "emissiveFactor": [
        0.1999999881,
        0.1999999881,
        0.1999999881
      ],
      "emissiveTexture": {
        "index": 3,
        "texCoord": 0
      },
      "name": "Material.003",
      "pbrMetallicRoughness": {
        "baseColorFactor": [
          1,
          1,
          1,
          1
        ],
        "baseColorTexture": {
          "index": 4,
          "texCoord": 0
        },
        "metallicFactor": 0,
        "roughnessFactor": 0.59999999999999998
      }
    },
    {
      "doubleSided": true,
      "emissiveFactor": [
        0,
        0,
        0
      ],
      "name": "Material.006",
      "pbrMetallicRoughness": {
        "baseColorFactor": [
          1,
          1,
          1,
          1
        ],
        "baseColorTexture": {
          "index": 2,
          "texCoord": 0
        },
        "metallicFactor": 0,
        "roughnessFactor": 0.59999999999999998
      }
    }
  ],
  "meshes": [
    {
      "name": "Cylinder.004_0",
      "primitives": [
        {
          "attributes": {
            "NORMAL": 1,
            "POSITION": 0,
            "TANGENT": 2,
            "TEXCOORD_0": 3
          },
          "indices": 4,
          "material": 3,
          "mode": 4
        }
      ]
    },
    {
      "name": "Cylinder_0",
      "primitives": [
        {
          "attributes": {
            "NORMAL": 6,
            "POSITION": 5,
            "TANGENT": 7,
            "TEXCOORD_0": 8
          },
          "indices": 9,
          "material": 2,
          "mode": 4
        }
      ]
    },
    {
      "name": "tree_0",
      "primitives": [
        {
          "attributes": {
            "NORMAL": 11,
            "POSITION": 10,
            "TANGENT": 12,
            "TEXCOORD_0": 13
          },
          "indices": 14,
          "material": 0,
          "mode": 4
        }
      ]
    },
    {
      "name": "leaves_0",
      "primitives": [
        {
          "attributes": {
            "NORMAL": 16,
            "POSITION": 15,
            "TANGENT": 17,
            "TEXCOORD_0": 18
          },
          "indices": 19,
          "material": 1,
          "mode": 4
        }
      ]
    }
  ],
  "nodes": [
    {
      "children": [
        1
      ],
      "name": "RootNode (gltf orientation matrix)",
      "rotation": [
        -0.70710678118654746,
        -0,
        -0,
        0.70710678118654757
      ]
    },
    {
      "children": [
        2
      ],
      "name": "RootNode (model correction matrix)"
    },
    {
      "children": [
        3,
        5,
        7
      ],
      "name": "Root"
    },
    {
      "children": [
        4
      ],
      "matrix": [
        -0.35837000000000008,
        0.93357999999999997,
        0,
        0,
        -0.93357999999999997,
        -0.35837000000000008,
        0,
        0,
        0,
        0,
        1,
        0,
        -0,
        3.0000000000000011e-05,
        176.38017000000002,
        1
      ],
      "name": "Cylinder.004"
    },
    {
      "mesh": 0,
      "name": "Cylinder.004_0"
    },
    {
      "children": [
        6
      ],
      "matrix": [
        0.99980999999999998,
        -0.019460000000000005,
        0,
        0,
        0.019460000000000005,
        0.99980999999999998,
        0,
        0,
        0,
        0,
        1,
        0,
        0,
        0,
        0,
        1
      ],
      "name": "Cylinder"
    },
    {
      "mesh": 1,
      "name": "Cylinder_0"
    },
    {
      "children": [
        8,
        9
      ],
      "matrix": [
        84.729690000000005,
        0,
        0,
        0,
        0,
        84.729690000000005,
        0,
        0,
        0,
        0,
        84.729690000000005,
        0,
        0,
        0,
        84.803660000000008,
        1
      ],
      "name": "tree"
    },
    {
      "mesh": 2,
      "name": "tree_0"
    },
    {
      "children": [
        10
      ],
      "name": "leaves"
    },
    {
      "mesh": 3,
      "name": "leaves_0"
    }
  ],
  "samplers": [
    {
      "magFilter": 9729,
      "minFilter": 9987,
      "wrapS": 10497,
      "wrapT": 10497
    }
  ],
  "scene": 0,
  "scenes": [
    {
      "name": "OSG_Scene",
      "nodes": [
        0
      ]
    }
  ],
  "textures": [
    {
      "sampler": 0,
      "source": 0
    },
    {
      "sampler": 0,
      "source": 1
    },
    {
      "sampler": 0,
      "source": 2
    },
    {
      "sampler": 0,
      "source": 3
    },
    {
      "sampler": 0,
      "source": 4
    }
  ]
}

