{
  "accessors": [
    {
      "bufferView": 2,
      "componentType": 5126,
      "count": 470,
      "max": [
        19.325286865234375,
        26.123802185058594,
        9.8945646286010742
      ],
      "min": [
        -19.325286865234375,
        -17.666297912597656,
        -8.9484004974365234
      ],
      "type": "VEC3"
    },
    {
      "bufferView": 2,
      "byteOffset": 5640,
      "componentType": 5126,
      "count": 470,
      "max": [
        0.99792206287384033,
        0.99883753061294556,
        1
      ],
      "min": [
        -0.99792224168777466,
        -1,
        -0.99998617172241211
      ],
      "type": "VEC3"
    },
    {
      "bufferView": 3,
      "componentType": 5126,
      "count": 470,
      "max": [
        1,
        0.98577284812927246,
        0.99896210432052612,
        1
      ],
      "min": [
        -0.97533589601516724,
        -0.9893951416015625,
        -0.99897348880767822,
        -1
      ],
      "type": "VEC4"
    },
    {
      "bufferView": 1,
      "componentType": 5126,
      "count": 470,
      "max": [
        0.875,
        1
      ],
      "min": [
        0.125,
        0
      ],
      "type": "VEC2"
    },
    {
      "bufferView": 0,
      "componentType": 5125,
      "count": 2544,
      "max": [
        469
      ],
      "min": [
        0
      ],
      "type": "SCALAR"
    },
    {
      "bufferView": 2,
      "byteOffset": 11280,
      "componentType": 5126,
      "count": 35,
      "max": [
        4.3745379447937012,
        25.574365615844727,
        6.3271093368530273
      ],
      "min": [
        -4.3797988891601562,
        21.711067199707031,
        -4.9980225563049316
      ],
      "type": "VEC3"
    },
    {
      "bufferView": 2,
      "byteOffset": 11700,
      "componentType": 5126,
      "count": 35,
      "max": [
        0.29979977011680603,
        0.99999147653579712,
        0.5719980001449585
      ],
      "min": [
        -0.29643994569778442,
        0.82025498151779175,
        -0.22383163869380951
      ],
      "type": "VEC3"
    },
    {
      "bufferView": 3,
      "byteOffset": 7520,
      "componentType": 5126,
      "count": 35,
      "max": [
        1,
        0.42816361784934998,
        0.44724327325820923,
        1
      ],
      "min": [
        0.78367215394973755,
        -0.43108174204826355,
        -0.44409269094467163,
        1
      ],
      "type": "VEC4"
    },
    {
      "bufferView": 1,
      "byteOffset": 3760,
      "componentType": 5126,
      "count": 35,
      "max": [
        0.60930883884429932,
        0.49258789420127869
      ],
      "min": [
        0.39055880904197693,
        0.2572629451751709
      ],
      "type": "VEC2"
    },
    {
      "bufferView": 0,
      "byteOffset": 10176,
      "componentType": 5125,
      "count": 144,
      "max": [
        34
      ],
      "min": [
        0
      ],
      "type": "SCALAR"
    },
    {
      "bufferView": 2,
      "byteOffset": 12120,
      "componentType": 5126,
      "count": 496,
      "max": [
        16.102993011474609,
        179.2674560546875,
        51.800628662109375
      ],
      "min": [
        -15.542010307312012,
        142.45574951171875,
        19.725696563720703
      ],
      "type": "VEC3"
    },
    {
      "bufferView": 2,
      "byteOffset": 18072,
      "componentType": 5126,
      "count": 496,
      "max": [
        0.99770253896713257,
        0.98936933279037476,
        0.99721413850784302
      ],
      "min": [
        -0.98005914688110352,
        -0.99503213167190552,
        -0.98013138771057129
      ],
      "type": "VEC3"
    },
    {
      "bufferView": 3,
      "byteOffset": 8080,
      "componentType": 5126,
      "count": 496,
      "max": [
        0.91904580593109131,
        0.99773502349853516,
        0.9984971284866333,
        1
      ],
      "min": [
        -0.79920357465744019,
        -0.99855554103851318,
        -0.93971914052963257,
        -1
      ],
      "type": "VEC4"
    },
    {
      "bufferView": 1,
      "byteOffset": 4040,
      "componentType": 5126,
      "count": 496,
      "max": [
        1,
        1
      ],
      "min": [
        0,
        0
      ],
      "type": "VEC2"
    },
    {
      "bufferView": 1,
      "byteOffset": 8008,
      "componentType": 5126,
      "count": 496,
      "max": [
        0,
        0
      ],
      "min": [
        0,
        0
      ],
      "type": "VEC2"
    },
    {
      "bufferView": 1,
      "byteOffset": 11976,
      "componentType": 5126,
      "count": 496,
      "max": [
        0,
        0
      ],
      "min": [
        0,
        0
      ],
      "type": "VEC2"
    },
    {
      "bufferView": 1,
      "byteOffset": 15944,
      "componentType": 5126,
      "count": 496,
      "max": [
        0,
        0
      ],
      "min": [
        0,
        0
      ],
      "type": "VEC2"
    },
    {
      "bufferView": 0,
      "byteOffset": 10752,
      "componentType": 5125,
      "count": 852,
      "max": [
        495
      ],
      "min": [
        0
      ],
      "type": "SCALAR"
    },
    {
      "bufferView": 2,
      "byteOffset": 24024,
      "componentType": 5126,
      "count": 4665,
      "max": [
        15.98417854309082,
        172.77761840820312,
        46.834995269775391
      ],
      "min": [
        -15.954767227172852,
        139.72306823730469,
        23.340831756591797
      ],
      "type": "VEC3"
    },
    {
      "bufferView": 2,
      "byteOffset": 80004,
      "componentType": 5126,
      "count": 4665,
      "max": [
        0.99130934476852417,
        1,
        0.99999803304672241
      ],
      "min": [
        -0.99131119251251221,
        -0.99999076128005981,
        -0.99992454051971436
      ],
      "type": "VEC3"
    },
    {
      "bufferView": 3,
      "byteOffset": 16016,
      "componentType": 5126,
      "count": 4665,
      "max": [
        0,
        0,
        0,
        1
      ],
      "min": [
        0,
        0,
        0,
        1
      ],
      "type": "VEC4"
    },
    {
      "bufferView": 1,
      "byteOffset": 19912,
      "componentType": 5126,
      "count": 4665,
      "max": [
        0,
        0
      ],
      "min": [
        0,
        0
      ],
      "type": "VEC2"
    },
    {
      "bufferView": 1,
      "byteOffset": 57232,
      "componentType": 5126,
      "count": 4665,
      "max": [
        0.875,
        1
      ],
      "min": [
        0.125,
        0
      ],
      "type": "VEC2"
    },
    {
      "bufferView": 1,
      "byteOffset": 94552,
      "componentType": 5126,
      "count": 4665,
      "max": [
        0,
        0
      ],
      "min": [
        0,
        0
      ],
      "type": "VEC2"
    },
    {
      "bufferView": 1,
      "byteOffset": 131872,
      "componentType": 5126,
      "count": 4665,
      "max": [
        0,
        0
      ],
      "min": [
        0,
        0
      ],
      "type": "VEC2"
    },
    {
      "bufferView": 0,
      "byteOffset": 14160,
      "componentType": 5125,
      "count": 26664,
      "max": [
        4664
      ],
      "min": [
        0
      ],
      "type": "SCALAR"
    },
    {
      "bufferView": 2,
      "byteOffset": 135984,
      "componentType": 5126,
      "count": 141,
      "max": [
        3.8729934692382812,
        148.69316101074219,
        45.530021667480469
      ],
      "min": [
        -3.8435800075531006,
        145.06404113769531,
        44.755702972412109
      ],
      "type": "VEC3"
    },
    {
      "bufferView": 2,
      "byteOffset": 137676,
      "componentType": 5126,
      "count": 141,
      "max": [
        0.76178717613220215,
        0.39337849617004395,
        0.99770742654800415
      ],
      "min": [
        -0.75274777412414551,
        -0.87793421745300293,
        0.47878128290176392
      ],
      "type": "VEC3"
    },
    {
      "bufferView": 3,
      "byteOffset": 90656,
      "componentType": 5126,
      "count": 141,
      "max": [
        0,
        0,
        0,
        1
      ],
      "min": [
        0,
        0,
        0,
        1
      ],
      "type": "VEC4"
    },
    {
      "bufferView": 1,
      "byteOffset": 169192,
      "componentType": 5126,
      "count": 141,
      "max": [
        0,
        0
      ],
      "min": [
        0,
        0
      ],
      "type": "VEC2"
    },
    {
      "bufferView": 1,
      "byteOffset": 170320,
      "componentType": 5126,
      "count": 141,
      "max": [
        0.5553436279296875,
        0.0625
      ],
      "min": [
        0.4446563720703125,
        0.03125
      ],
      "type": "VEC2"
    },
    {
      "bufferView": 1,
      "byteOffset": 171448,
      "componentType": 5126,
      "count": 141,
      "max": [
        0,
        0
      ],
      "min": [
        0,
        0
      ],
      "type": "VEC2"
    },
    {
      "bufferView": 1,
      "byteOffset": 172576,
      "componentType": 5126,
      "count": 141,
      "max": [
        0,
        0
      ],
      "min": [
        0,
        0
      ],
      "type": "VEC2"
    },
    {
      "bufferView": 0,
      "byteOffset": 120816,
      "componentType": 5125,
      "count": 762,
      "max": [
        140
      ],
      "min": [
        0
      ],
      "type": "SCALAR"
    },
    {
      "bufferView": 2,
      "byteOffset": 139368,
      "componentType": 5126,
      "count": 8377,
      "max": [
        8.2329683303833008,
        159.3560791015625,
        46.769660949707031
      ],
      "min": [
        -8.6869916915893555,
        155.65374755859375,
        45.226055145263672
      ],
      "type": "VEC3"
    },
    {
      "bufferView": 2,
      "byteOffset": 239892,
      "componentType": 5126,
      "count": 8377,
      "max": [
        0.9996677041053772,
        0.99909681081771851,
        0.99999713897705078
      ],
      "min": [
        -0.99966681003570557,
        -0.99909967184066772,
        -0.99999719858169556
      ],
      "type": "VEC3"
    },
    {
      "bufferView": 3,
      "byteOffset": 92912,
      "componentType": 5126,
      "count": 8377,
      "max": [
        0,
        0,
        0,
        1
      ],
      "min": [
        0,
        0,
        0,
        1
      ],
      "type": "VEC4"
    },
    {
      "bufferView": 1,
      "byteOffset": 173704,
      "componentType": 5126,
      "count": 8377,
      "max": [
        0,
        0
      ],
      "min": [
        0,
        0
      ],
      "type": "VEC2"
    },
    {
      "bufferView": 1,
      "byteOffset": 240720,
      "componentType": 5126,
      "count": 8377,
      "max": [
        0,
        0
      ],
      "min": [
        0,
        0
      ],
      "type": "VEC2"
    },
    {
      "bufferView": 1,
      "byteOffset": 307736,
      "componentType": 5126,
      "count": 8377,
      "max": [
        1.0000001192092896,
        1
      ],
      "min": [
        0,
        0
      ],
      "type": "VEC2"
    },
    {
      "bufferView": 1,
      "byteOffset": 374752,
      "componentType": 5126,
      "count": 8377,
      "max": [
        1.0000001192092896,
        1
      ],
      "min": [
        0,
        0
      ],
      "type": "VEC2"
    },
    {
      "bufferView": 0,
      "byteOffset": 123864,
      "componentType": 5125,
      "count": 48480,
      "max": [
        8376
      ],
      "min": [
        0
      ],
      "type": "SCALAR"
    }
  ],
  "asset": {
    "extras": {
      "author": "Emma Kohncke (https://sketchfab.com/emmak)",
      "license": "CC-BY-4.0 (http://creativecommons.org/licenses/by/4.0/)",
      "source": "https://sketchfab.com/3d-models/low-poly-male-avatar-02-vr-87bb06b3d4ac48c0ae8d5d76bf0d6211",
      "title": "Low-Poly Male Avatar 02 VR"
    },
    "generator": "Sketchfab-6.20.0",
    "version": "2.0"
  },
  "bufferViews": [
    {
      "buffer": 0,
      "byteLength": 317784,
      "byteOffset": 0,
      "name": "floatBufferViews",
      "target": 34963
    },
    {
      "buffer": 0,
      "byteLength": 441768,
      "byteOffset": 317784,
      "byteStride": 8,
      "name": "floatBufferViews",
      "target": 34962
    },
    {
      "buffer": 0,
      "byteLength": 340416,
      "byteOffset": 759552,
      "byteStride": 12,
      "name": "floatBufferViews",
      "target": 34962
    },
    {
      "buffer": 0,
      "byteLength": 226944,
      "byteOffset": 1099968,
      "byteStride": 16,
      "name": "floatBufferViews",
      "target": 34962
    }
  ],
  "buffers": [
    {
      "byteLength": 1326912,
      "uri": "scene.bin"
    }
  ],
  "materials": [
    {
      "doubleSided": true,
      "emissiveFactor": [
        0,
        0,
        0
      ],
      "name": "Tshirt_Green",
      "pbrMetallicRoughness": {
        "baseColorFactor": [
          0.013990000000000001,
          0.012948100000000001,
          0.13290199999999999,
          1
        ],
        "metallicFactor": 0,
        "roughnessFactor": 0.59999999999999998
      }
    },
    {
      "doubleSided": true,
      "emissiveFactor": [
        0,
        0,
        0
      ],
      "name": "LightSkin",
      "pbrMetallicRoughness": {
        "baseColorFactor": [
          0.43149900000000002,
          0.30308499999999999,
          0.207896,
          1
        ],
        "metallicFactor": 0,
        "roughnessFactor": 0.59999999999999998
      }
    },
    {
      "doubleSided": true,
      "emissiveFactor": [
        0,
        0,
        0
      ],
      "name": "Hair_F",
      "pbrMetallicRoughness": {
        "baseColorFactor": [
          0.439415,
          0.34642000000000001,
          0.15159800000000001,
          1
        ],
        "metallicFactor": 0,
        "roughnessFactor": 0.59999999999999998
      }
    },
    {
      "doubleSided": true,
      "emissiveFactor": [
        0,
        0,
        0
      ],
      "name": "blinn1",
      "pbrMetallicRoughness": {
        "baseColorFactor": [
          0.5,
          0.5,
          0.5,
          1
        ],
        "metallicFactor": 0,
        "roughnessFactor": 0.92074838159999994
      }
    },
    {
      "doubleSided": true,
      "emissiveFactor": [
        0,
        0,
        0
      ],
      "name": "phong1",
      "pbrMetallicRoughness": {
        "baseColorFactor": [
          0,
          0,
          0,
          1
        ],
        "metallicFactor": 0,
        "roughnessFactor": 0.89426287370000002
      }
    }
  ],
  "meshes": [
    {
      "name": "Body_Tshirt_Green_0",
      "primitives": [
        {
          "attributes": {
            "NORMAL": 1,
            "POSITION": 0,
            "TANGENT": 2,
            "TEXCOORD_0": 3
          },
          "indices": 4,
          "material": 0,
          "mode": 4
        }
      ]
    },
    {
      "name": "Body_LightSkin_0",
      "primitives": [
        {
          "attributes": {
            "NORMAL": 6,
            "POSITION": 5,
            "TANGENT": 7,
            "TEXCOORD_0": 8
          },
          "indices": 9,
          "material": 1,
          "mode": 4
        }
      ]
    },
    {
      "name": "Head_Hair_F_0",
      "primitives": [
        {
          "attributes": {
            "NORMAL": 11,
            "POSITION": 10,
            "TANGENT": 12,
            "TEXCOORD_0": 13,
            "TEXCOORD_1": 14,
            "TEXCOORD_2": 15,
            "TEXCOORD_3": 16
          },
          "indices": 17,
          "material": 2,
          "mode": 4
        }
      ]
    },
    {
      "name": "Head_LightSkin_0",
      "primitives": [
        {
          "attributes": {
            "NORMAL": 19,
            "POSITION": 18,
            "TANGENT": 20,
            "TEXCOORD_0": 21,
            "TEXCOORD_1": 22,
            "TEXCOORD_2": 23,
            "TEXCOORD_3": 24
          },
          "indices": 25,
          "material": 1,
          "mode": 4
        }
      ]
    },
    {
      "name": "Head_blinn1_0",
      "primitives": [
        {
          "attributes": {
            "NORMAL": 27,
            "POSITION": 26,
            "TANGENT": 28,
            "TEXCOORD_0": 29,
            "TEXCOORD_1": 30,
            "TEXCOORD_2": 31,
            "TEXCOORD_3": 32
          },
          "indices": 33,
          "material": 3,
          "mode": 4
        }
      ]
    },
    {
      "name": "Head_phong1_0",
      "primitives": [
        {
          "attributes": {
            "NORMAL": 35,
            "POSITION": 34,
            "TANGENT": 36,
            "TEXCOORD_0": 37,
            "TEXCOORD_1": 38,
            "TEXCOORD_2": 39,
            "TEXCOORD_3": 40
          },
          "indices": 41,
          "material": 4,
          "mode": 4
        }
      ]
    }
  ],
  "nodes": [
    {
      "children": [
        1
      ],
      "name": "RootNode (gltf orientation matrix)",
      "rotation": [
        -0.70710678118654746,
        -0,
        -0,
        0.70710678118654757
      ]
    },
    {
      "children": [
        2
      ],
      "name": "RootNode (model correction matrix)"
    },
    {
      "children": [
        3
      ],
      "matrix": [
        1,
        0,
        0,
        0,
        0,
        0,
        1,
        0,
        0,
        -1,
        0,
        0,
        0,
        0,
        0,
        1
      ],
      "name": "0c80bfc5b60f4e82a674d4b70ca85619.fbx"
    },
    {
      "children": [
        4,
        7
      ],
      "name": "RootNode"
    },
    {
      "children": [
        5,
        6
      ],
      "matrix": [
        1,
        0,
        0,
        0,
        0,
        1,
        0,
        0,
        0,
        0,
        1,
        0,
        0.05728805810213089,
        110.35745239257812,
        33.462242126464844,
        1
      ],
      "name": "Body"
    },
    {
      "mesh": 0,
      "name": "Body_Tshirt_Green_0"
    },
    {
      "mesh": 1,
      "name": "Body_LightSkin_0"
    },
    {
      "children": [
        8,
        9,
        10,
        11
      ],
      "name": "Head"
    },
    {
      "mesh": 2,
      "name": "Head_Hair_F_0"
    },
    {
      "mesh": 3,
      "name": "Head_LightSkin_0"
    },
    {
      "mesh": 4,
      "name": "Head_blinn1_0"
    },
    {
      "mesh": 5,
      "name": "Head_phong1_0"
    }
  ],
  "scene": 0,
  "scenes": [
    {
      "name": "OSG_Scene",
      "nodes": [
        0
      ]
    }
  ]
}

